<?xml version="1.0" encoding="UTF-8" standalone="no"?>
<svg
   height="21.645042"
   viewBox="0 -960 865.8017 865.8017"
   width="21.645042"
   fill="#e8eaed"
   version="1.1"
   id="svg1"
   sodipodi:docname="urban_stop.svg"
   inkscape:version="1.4.1 (93de688d07, 2025-03-30)"
   inkscape:export-filename="urban_stop.png"
   inkscape:export-xdpi="4541.6406"
   inkscape:export-ydpi="4541.6406"
   xmlns:inkscape="http://www.inkscape.org/namespaces/inkscape"
   xmlns:sodipodi="http://sodipodi.sourceforge.net/DTD/sodipodi-0.dtd"
   xmlns="http://www.w3.org/2000/svg"
   xmlns:svg="http://www.w3.org/2000/svg">
  <defs
     id="defs1">
    <inkscape:path-effect
       effect="fillet_chamfer"
       id="path-effect3"
       is_visible="true"
       lpeversion="1"
       nodesatellites_param="F,0,0,1,0,64.288208,0,1 @ F,0,0,1,0,64.288208,0,1 @ F,0,0,1,0,64.288185,0,1 @ F,0,0,1,0,64.288185,0,1"
       radius="0"
       unit="px"
       method="auto"
       mode="F"
       chamfer_steps="1"
       flexible="false"
       use_knot_distance="true"
       apply_no_radius="true"
       apply_with_radius="true"
       only_selected="false"
       hide_knots="false" />
  </defs>
  <sodipodi:namedview
     id="namedview1"
     pagecolor="#ffffff"
     bordercolor="#000000"
     borderopacity="0.25"
     inkscape:showpageshadow="2"
     inkscape:pageopacity="0.0"
     inkscape:pagecheckerboard="0"
     inkscape:deskcolor="#d1d1d1"
     showgrid="false"
     inkscape:zoom="22.627417"
     inkscape:cx="10.69499"
     inkscape:cy="13.899068"
     inkscape:window-width="1908"
     inkscape:window-height="1028"
     inkscape:window-x="0"
     inkscape:window-y="0"
     inkscape:window-maximized="1"
     inkscape:current-layer="svg1">
    <inkscape:page
       x="0"
       y="0"
       width="865.8017"
       height="865.8017"
       id="page2"
       margin="0"
       bleed="0" />
  </sodipodi:namedview>
  <path
     style="fill:#7cc500;fill-opacity:1;stroke-width:43.3581"
     id="rect1"
     width="865.8017"
     height="865.8017"
     x="47.099152"
     y="-912.90082"
     sodipodi:type="rect"
     inkscape:path-effect="#path-effect3"
     d="m 111.38736,-912.90082 737.22528,0 a 64.288208,64.288208 45 0 1 64.28821,64.28821 v 737.2253 a 64.288185,64.288185 135 0 1 -64.28819,64.288189 H 111.38734 A 64.288185,64.288185 45 0 1 47.099152,-111.38731 v -737.2253 a 64.288208,64.288208 135 0 1 64.288208,-64.28821 z"
     transform="translate(-47.099152,-47.099178)" />
  <path
     d="m 192.90085,-147.09918 q -17,0 -28.5,-11.5 -11.5,-11.5 -11.5,-28.5 v -82 q -18,-20 -29,-44.5 -11,-24.5 -11,-53.5 v -380 q 0,-83 77,-121.5 77,-38.5 243,-38.5 172,0 246,37 74,37 74,123 v 380 q 0,29 -11,53.5 -11,24.5 -29,44.5 v 82 q 0,17 -11.5,28.5 -11.5,11.5 -28.5,11.5 h -40 q -17,0 -28.5,-11.5 -11.5,-11.5 -11.5,-28.5 v -40 h -320 v 40 q 0,17 -11.5,28.5 -11.5,11.5 -28.5,11.5 z m 242,-640 h 224 -448 z m 158,280 h -400 480 z m -400,-80 h 480 v -120 h -480 z m 100,240 q 25,0 42.5,-17.5 17.5,-17.5 17.5,-42.5 0,-25 -17.5,-42.5 -17.5,-17.5 -42.5,-17.5 -25,0 -42.5,17.5 -17.5,17.5 -17.5,42.5 0,25 17.5,42.5 17.5,17.5 42.5,17.5 z m 280,0 q 25,0 42.5,-17.5 17.5,-17.5 17.5,-42.5 0,-25 -17.5,-42.5 -17.5,-17.5 -42.5,-17.5 -25,0 -42.5,17.5 -17.5,17.5 -17.5,42.5 0,25 17.5,42.5 17.5,17.5 42.5,17.5 z m -362,-440 h 448 q -15,-17 -64.5,-28.5 -49.5,-11.5 -159.5,-11.5 -107,0 -156.5,12.5 -49.5,12.5 -67.5,27.5 z m 62,480 h 320 q 33,0 56.5,-23.5 23.5,-23.5 23.5,-56.5 v -120 h -480 v 120 q 0,33 23.5,56.5 23.5,23.5 56.5,23.5 z"
     id="path1"
     style="fill:#ffffff" />
</svg>
